<svg width="48" height="48" viewBox="0 0 48 48" fill="none" xmlns="http://www.w3.org/2000/svg">
  <!-- Trophy/Base -->
  <path d="M24 4C20.7 4 18 6.7 18 10V14H12C10.9 14 10 14.9 10 16V20C10 24.4 13.6 28 18 28H20V32C20 33.1 20.9 34 22 34H26C27.1 34 28 33.1 28 32V28H30C34.4 28 38 24.4 38 20V16C38 14.9 37.1 14 36 14H30V10C30 6.7 27.3 4 24 4Z" fill="url(#gradient1)"/>
  <!-- Trophy Stem -->
  <rect x="22" y="28" width="4" height="8" fill="url(#gradient2)"/>
  <!-- Trophy Top -->
  <path d="M16 16H32V20C32 21.1 31.1 22 30 22H18C16.9 22 16 21.1 16 20V16Z" fill="url(#gradient3)"/>
  <!-- Trophy Handles -->
  <path d="M14 18C12.9 18 12 18.9 12 20V22C12 23.1 12.9 24 14 24V18Z" fill="url(#gradient2)"/>
  <path d="M34 18V24C35.1 24 36 23.1 36 22V20C36 18.9 35.1 18 34 18Z" fill="url(#gradient2)"/>
  <!-- "SC" Text -->
  <text x="24" y="42" text-anchor="middle" fill="url(#gradient1)" font-family="Arial, sans-serif" font-size="10" font-weight="bold">SC</text>

  <defs>
    <linearGradient id="gradient1" x1="0%" y1="0%" x2="100%" y2="100%">
      <stop offset="0%" stop-color="#0ea5e9"/>
      <stop offset="100%" stop-color="#0284c7"/>
    </linearGradient>
    <linearGradient id="gradient2" x1="0%" y1="0%" x2="100%" y2="100%">
      <stop offset="0%" stop-color="#a855f7"/>
      <stop offset="100%" stop-color="#9333ea"/>
    </linearGradient>
    <linearGradient id="gradient3" x1="0%" y1="0%" x2="100%" y2="100%">
      <stop offset="0%" stop-color="#38bdf8"/>
      <stop offset="100%" stop-color="#0ea5e9"/>
    </linearGradient>
  </defs>
</svg>